<svg id="Layer_1" xmlns="http://www.w3.org/2000/svg" xmlns:xlink="http://www.w3.org/1999/xlink" viewBox="0 0 91 32"><style>.st0{opacity:.25}.st1,.st2{clip-path:url(#SVGID_2_);fill:#272425}.st2{fill:none;stroke:#c3c5c7;stroke-width:.41}.st3{clip-path:url(#SVGID_4_);fill:url(#SVGID_5_)}.st4{fill:none;stroke:#636465;stroke-width:.41}.st5{fill:#fff}.st6{clip-path:url(#SVGID_7_);fill:url(#SVGID_8_)}.st7{fill:#f8e7e9}</style><g class="st0"><defs><path id="SVGID_1_" d="M1.2 2h89.6v29.6H1.2z"/></defs><clipPath id="SVGID_2_"><use xlink:href="#SVGID_1_" overflow="visible"/></clipPath><path class="st1" d="M90.6 25.8c0 3.1-2.5 5.6-5.6 5.6H7c-3.1 0-5.6-2.5-5.6-5.6v-18c0-3.1 2.5-5.6 5.6-5.6h78c3.1 0 5.6 2.5 5.6 5.6v18z"/><path class="st2" d="M90.6 25.8c0 3.1-2.5 5.6-5.6 5.6H7c-3.1 0-5.6-2.5-5.6-5.6v-18c0-3.1 2.5-5.6 5.6-5.6h78c3.1 0 5.6 2.5 5.6 5.6v18z"/></g><defs><path id="SVGID_3_" d="M89.7 24.6c0 3.1-2.5 5.6-5.6 5.6h-78C3 30.2.5 27.7.5 24.6v-18C.5 3.5 3 1 6.1 1h78c3.1 0 5.6 2.5 5.6 5.6v18z"/></defs><clipPath id="SVGID_4_"><use xlink:href="#SVGID_3_" overflow="visible"/></clipPath><linearGradient id="SVGID_5_" gradientUnits="userSpaceOnUse" x1="-371.744" y1="318.188" x2="-370.732" y2="318.188" gradientTransform="matrix(0 28.8809 28.8809 0 -9144.475 10737.32)"><stop offset="0" stop-color="#cd202a"/><stop offset="1" stop-color="#9b2427"/></linearGradient><path class="st3" d="M.5 1h89.2v29.2H.5z"/><path class="st4" d="M89.7 24.6c0 3.1-2.5 5.6-5.6 5.6h-78C3 30.2.5 27.7.5 24.6v-18C.5 3.5 3 1 6.1 1h78c3.1 0 5.6 2.5 5.6 5.6v18z"/><path class="st5" d="M20.6 18.4v-3.2c0-.4-.1-.7-.4-.9-.3-.2-.6-.3-1-.3-.3 0-.7.1-1 .2-.3.2-.5.3-.5.5 0 .1.1.3.4.5.6.4.9.9.9 1.5 0 .5-.2.8-.5 1.2-.3.3-.7.5-1.2.5-.6 0-1-.2-1.4-.5-.3-.3-.5-.8-.5-1.3 0-.9.4-1.6 1.2-2.2.8-.6 1.8-.9 3-.9 1.3 0 2.3.3 3 1 .7.7 1.1 1.6 1.1 2.7v7.5c0 .3.1.5.3.5.3 0 .4-.4.4-1.3h.6v.5c0 .5-.2 1-.5 1.3-.3.3-.8.5-1.4.5-1.1 0-1.9-.5-2.3-1.4-.3.5-.6.9-1 1.1-.4.2-.9.3-1.7.3-1 0-1.8-.2-2.3-.7-.5-.5-.8-1.2-.8-2.1 0-1.3.9-2.3 2.7-3 .8-.4 1.4-.6 1.6-.8.3-.3.7-.6 1.3-1.2m0 4.9v-4.1l-.6.5c-.6.4-1 .8-1.1 1.1-.2.3-.3.8-.3 1.5V24c0 .9.3 1.3.8 1.3.3 0 .6-.2.8-.6.3-.3.4-.8.4-1.4"/><path class="st5" d="M25 7.9h4.5v17.6h1.2v.5H25v-.5h1.2V8.4H25z"/><path class="st5" d="M30.7 7.9h4.5v17.7h1.1v.4h-5.7v-.5h1.2V8.4h-1.2v-.5zm6.9 5.8h3.3v.5h-.4c-.3 0-.5.1-.6.2-.2.1-.4.4-.7.7L38 16.7l3.1 8.9h1v.4h-5v-.5h.8l-2.3-6.4 2.9-3.9c.2-.2.3-.4.3-.6 0-.2-.2-.4-.5-.4h-.7v-.5zm9.9-3.4h3.3v3.4h1.4v.5h-1.4v10.7c0 .3.1.5.3.5.5 0 .8-.6 1.1-1.9h.5c-.2 1.8-1.1 2.7-2.7 2.7-.8 0-1.4-.2-1.8-.5-.4-.3-.6-.8-.6-1.5v-10h-1.4v-.5h1.4v-3.4zm5.1 9.4c0-1.8.5-3.2 1.5-4.5 1-1.2 2.2-1.8 3.6-1.8s2.6.6 3.6 1.8c1 1.2 1.5 2.7 1.5 4.4 0 1.9-.5 3.5-1.4 4.7-1 1.2-2.2 1.8-3.7 1.8s-2.7-.6-3.6-1.8c-1.1-1.1-1.5-2.6-1.5-4.6m3.7-3.6v7.6c0 1.4.4 2 1.3 2s1.4-.6 1.4-1.9v-7.5c0-.9-.1-1.5-.3-1.8-.2-.3-.6-.5-1.1-.5-.5 0-.8.2-1 .5-.2.3-.3.8-.3 1.6m21.9 5.7h.5c.7 2.6 1.7 3.9 3 3.9.5 0 .8-.2 1.2-.5.3-.3.5-.7.5-1.2 0-.6-.2-1.1-.6-1.6-.4-.4-1-.8-1.8-1.2-.8-.4-1.4-.7-1.8-1.1-.4-.4-.7-.8-1-1.3-.2-.5-.3-1.1-.3-1.7 0-1.1.3-2 .9-2.7.6-.7 1.4-1 2.3-1 .6 0 1.2.1 1.6.3.4.2.7.3.8.3.2 0 .3-.1.3-.4h.5v3.6h-.5c-.4-2.2-1.3-3.3-2.7-3.3-.5 0-.9.1-1.2.4-.3.3-.4.6-.4 1.1 0 .4.2.8.5 1.1.3.3 1.1.8 2.2 1.4 1.1.6 1.9 1.2 2.3 1.8.4.6.6 1.4.6 2.5 0 1.2-.3 2.1-1 2.9-.7.7-1.5 1.1-2.5 1.1-.7 0-1.2-.1-1.7-.3-.5-.2-.8-.3-.8-.3-.2 0-.3.2-.3.5h-.5v-4.3z"/><defs><path id="SVGID_6_" d="M65.7 4.6h7.2v.5h-1.5v18.3c0 .6.2 1.2.5 1.6.3.4.8.6 1.3.6.9 0 1.6-.3 2.1-.9.5-.6.8-1.5.8-2.7V6.2c0-.3-.1-.5-.3-.7-.2-.2-.4-.4-.7-.4h-.7v-.5h3.8v.5h-.4c-.3 0-.5.1-.8.4-.2.2-.4.5-.4.8V22c0 1.5-.4 2.5-1.1 3.2-.8.7-1.9 1-3.5 1-3.2 0-4.8-1.7-4.8-5V5.1h-1.5v-.5zm-61 0h12.5v5.7h-.6c-.3-3.4-1.5-5.1-3.6-5.1v20.3h1.6v.5H7.4v-.6h1.5V5.1c-1.1.1-1.9.6-2.5 1.6-.6 1-1 2.2-1.1 3.5h-.6V4.6z"/></defs><clipPath id="SVGID_7_"><use xlink:href="#SVGID_6_" overflow="visible"/></clipPath><linearGradient id="SVGID_8_" gradientUnits="userSpaceOnUse" x1="-377.068" y1="324.778" x2="-376.057" y2="324.778" gradientTransform="matrix(0 -21.4248 -21.4248 0 6999.804 -8052.385)"><stop offset="0" stop-color="#f5d3d3"/><stop offset=".146" stop-color="#f5d3d3"/><stop offset=".427" stop-color="#fff"/><stop offset="1" stop-color="#fff"/></linearGradient><path class="st6" d="M4.7 4.6h73.5v21.7H4.7z"/><path class="st7" d="M73.3 25.9c-2.2 0-3.9-1-3.9-3.6V4.6h-3.7v.5h1.5v16.1c0 3.3 1.6 5 4.8 5 .9 0 1.7-.1 2.3-.3h-1zM4.7 10.3h.6c.1-1.4.5-2.5 1.1-3.5.6-1 1.4-1.5 2.5-1.6v20.3H7.5v.6h3.7V4.6H4.7v5.7z"/></svg>