<svg xmlns="http://www.w3.org/2000/svg" width="416.92" height="110"><path fill="#C7C8CA" d="M395.03 79.84c0-.93.1-2.06.2-3.1 12.36-.7 23.7-9.77 23.7-21.72 0-5.15-2.18-9.88-11.34-9.88-21.2 0-27.8 24.8-27.8 36.65 0 1.1 0 2.2.2 3.3-1.7 1.9-3.8 3-6 3-2.9 0-4.2-1-4.2-3.8 0-1 .1-2 .4-3.3l7.4-35h-14.8l-7 33c-.6 2.4-.9 4.7-.9 6.7 0 8.6 4.8 12.3 11 12.3 3.9 0 10.1-1.1 15.5-7.6 2.5 5.3 7.6 7.6 14.2 7.6 8.2 0 15.6-3.5 17.8-15.3-3.3 2.9-8.2 5.5-12.2 5.5-3.6 0-6.4-2.1-6.4-8.6zM408.4 50.6c1.97 0 2.6 1.64 2.6 4.22 0 8.65-7 16.57-15.04 17 2.16-9.8 7.3-21.22 12.45-21.22zm-39.5-31.96c7.18 0 8.3 5.22 8.34 6.43.04 1.2-.25 2.46-.25 2.46s-1.5-1.47-4.6-1.34c-5.5.2-6 4.8-5.9 6 0 1.2.6 6.1 6.2 5.9 5.5-.2 11.6-4.7 10.5-13.8-1.1-9.2-8.3-12.1-15.1-12.1-6.7 0-16.2 5.6-19.6 18.6-6.6 20.2-13.8 42-13.8 42L313.7 8C312 4 320 4.3 322 4.28h8c.6 0 1.13-.53 1.13-1.2 0-.6-.5-1.15-1.17-1.15h-46.6c-.63 0-1.15.52-1.15 1.17 0 .64.5 1.17 1.2 1.17h6.5c4.2 0 7.4 2.7 9.3 9.16 0 0 30.6 90.87 31.4 92.86 1.2 2.9 2.8 3.6 4.2 3.6 1.4 0 3.2-.8 3.7-3.9l18.1-68.2c2.4-7.8 3.6-19.3 12.4-19.3zM239.85 51c-4.35-5.28-9.6-7.93-15.76-7.93-6.3 0-11.6 2.63-15.9 7.88-4.3 5.26-6.5 11.75-6.5 19.5 0 8.38 2.1 15.2 6.2 20.48 4.1 5.28 9.5 7.92 15.9 7.92s11.8-2.7 16-8.07 6.3-12.23 6.3-20.6c0-7.5-2.2-13.9-6.6-19.2zm-9.82 37.44c0 5.64-2.06 8.45-6.18 8.45-3.84 0-5.76-3-5.76-9V54.4c0-3.3.4-5.67 1.3-7.1s2.4-2.14 4.5-2.14c2.3 0 3.8.76 4.7 2.27s1.3 4.14 1.3 7.9V88.4zm-26.1-84.1c.64 0 1.17-.52 1.17-1.17 0-.65-.52-1.17-1.16-1.17H188.1c-.66 0-1.18.52-1.18 1.17 0 .65.52 1.17 1.17 1.17h1.6c1.2 0 4.2.5 4.2 2.43v72.3L170.5 6.94c.2.6-.05-.17-.04-.16 0 0-.28-.9 0-.04-.54-1.8 2.27-2.4 3.48-2.4h2.9c.64 0 1.16-.5 1.16-1.16 0-.65-.52-1.17-1.17-1.17h-29.1c-.65 0-1.18.6-1.18 1.2 0 .7.53 1.2 1.18 1.2h2.2c1.2 0 4.24.5 4.24 2.5v85.9c0 2-3.03 2.5-4.25 2.5-.65 0-1.17.5-1.17 1.2s.52 1.2 1.17 1.2h16.63c.64 0 1.17-.5 1.17-1.1s-.53-1.1-1.17-1.1h-2.6c-1.23 0-4.26-.5-4.26-2.4V23.5l24.9 74.06h14.1V6.8c0-1.92 3-2.43 4.2-2.43h1zm104.04 89.98c-.83 0-1.24-.76-1.24-2.26V59.18c0-4.92-1.63-8.84-4.88-11.75-3.26-2.9-7.67-4.36-13.24-4.36-5.3 0-9.8 1.3-13.3 3.88-3.5 2.6-5.3 5.8-5.3 9.64 0 2.3.8 4.2 2.3 5.7 1.5 1.4 3.5 2.1 6 2.1 2.1 0 3.9-.7 5.4-2.1 1.5-1.4 2.2-3.1 2.2-5.1 0-2.8-1.4-4.9-4.1-6.5-1.2-.9-1.8-1.7-1.8-2.3 0-.8.7-1.5 2-2.2 1.4-.7 2.8-1.1 4.3-1.1 1.9 0 3.3.5 4.5 1.5 1.2 1 1.7 2.3 1.7 4v13.9c-2.3 2.4-4 4-5.2 4.8-1.2.8-3.6 2-7.2 3.5-7.7 3-11.6 7.4-11.6 13.1 0 4 1.2 7.1 3.6 9.2s5.8 3.2 10.1 3.2c3.2 0 5.6-.5 7.3-1.5 1.7-1 3.1-2.6 4.4-4.9 1.8 4.3 5.16 6.4 10.06 6.4 2.6 0 4.6-.7 6.15-2.1 1.5-1.4 2.28-3.3 2.28-5.7v-2.1H310c0 3.7-.5 5.6-1.6 5.6zm-15.65-8.16c0 2.48-.5 4.55-1.5 6.2-1 1.65-2.18 2.47-3.54 2.47-2.4 0-3.6-1.9-3.6-5.74v-7.8c0-2.9.38-5.1 1.16-6.4.78-1.4 2.4-3 4.9-4.8l2.56-2.1v18.1zM264.2 2.33h-19.85V4.5h5.35v91.26h-5.35v2.16h25.2v-2.16h-5.34V2.33zM148.4 46.06h-14.83l-1.13 5.46v-.72c0-2.98-2.47-5.25-8.34-5.25-17.92 0-26.46 22.14-26.46 36.04 0 1.8.17 3.5.47 5-1.3.9-2.7 1.5-4.2 1.5-2.9 0-4.2-.9-4.2-3.8 0-1 .1-2 .4-3.3l7.4-35H82.6l-7 33c-.5 2.4-.82 4.7-.82 6.7 0 8.6 4.84 12.3 11.02 12.3 3.6 0 9.14-1 14.2-6.2 2.55 4.4 6.88 6.2 11.33 6.2 7.3 0 12.26-4.9 15.35-9.6.82 5.9 4.53 9.5 10.1 9.5 5.55 0 7.5-3.2 10.28-10.4-.72.3-1.34.4-2.26.4-2.9 0-4.22-1-4.22-3.8 0-1 .1-2 .4-3.3l7.42-35zm-21.83 33.06c-1.23 5.97-5.56 9.06-8.55 9.06-1.85 0-5.14-.1-5.14-8.03 0-9.68 5.66-28.22 14.4-28.22 3.3 0 4.23 2.68 4.23 3.92l-4.9 23.27zM88.7 18.64c7.18 0 8.3 5.22 8.34 6.43.05 1.2-.25 2.46-.25 2.46s-1.5-1.47-4.6-1.34c-5.4.2-6 4.8-5.9 6 0 1.2.6 6.1 6.2 5.9 5.5-.2 11.6-4.7 10.5-13.8-1.1-9.2-8.4-12.1-15.1-12.1-6.7 0-16.2 5.6-19.6 18.6C61.7 51.2 54.5 73 54.5 73L33.65 8.2c-1.78-4.1 6.22-3.8 8.2-3.83h8c.66 0 1.18-.53 1.18-1.18 0-.7-.5-1.2-1.1-1.2H3.18C2.5 2 2 2.5 2 3.1c0 .65.52 1.18 1.17 1.18h6.48c4.18 0 7.35 2.7 9.3 9.16 0 0 30.62 90.86 31.4 92.85 1.15 2.9 2.8 3.6 4.14 3.6 1.3 0 3.1-.8 3.7-4l18.1-68.1c2.3-7.8 3.5-19.3 12.3-19.3z"/><linearGradient id="a" x1="384.95" x2="384.95" y1="96.17" y2="43.14" gradientUnits="userSpaceOnUse"><stop offset="0" stop-color="#ED1C24"/><stop offset="1" stop-color="#B61D22"/></linearGradient><path fill="url(#a)" d="M393.03 77.84c0-.93.1-2.06.2-3.1 12.36-.7 23.7-9.77 23.7-21.72 0-5.15-2.18-9.88-11.34-9.88-21.2 0-27.8 24.8-27.8 36.65 0 1.1 0 2.2.2 3.3-1.7 1.9-3.8 3-6 3-2.9 0-4.2-1-4.2-3.8 0-1 .1-2 .4-3.3l7.4-35h-14.8l-7 33c-.6 2.4-.9 4.7-.9 6.7 0 8.6 4.8 12.3 11 12.3 3.9 0 10.1-1.1 15.5-7.6 2.5 5.3 7.6 7.6 14.2 7.6 8.2 0 15.6-3.5 17.8-15.3-3.3 2.9-8.2 5.5-12.2 5.5-3.6 0-6.4-2.1-6.4-8.6zM406.4 48.6c1.97 0 2.6 1.64 2.6 4.22 0 8.65-7 16.57-15.04 17 2.16-9.8 7.3-21.22 12.45-21.22z"/><linearGradient id="b" x1="367.66" x2="287.05" y1="74.44" y2="-6.17" gradientUnits="userSpaceOnUse"><stop offset="0" stop-color="#ED1C24"/><stop offset="1" stop-color="#B61D22"/></linearGradient><path fill="url(#b)" d="M346.58 29.02c-6.6 20.27-13.78 42.06-13.78 42.06l-21-64.9c-1.76-4.1 6.24-3.8 8.24-3.83h8c.65 0 1.17-.53 1.17-1.18 0-.64-.5-1.17-1.1-1.17h-46.7c-.6 0-1.1.52-1.1 1.17 0 .65.6 1.18 1.2 1.18h6.5c4.2 0 7.4 2.7 9.3 9.15 0 0 30.6 90.87 31.4 92.86 1.2 2.93 2.8 3.64 4.2 3.64 1.4 0 3.2-.73 3.7-3.92l18.1-68.13c2.4-7.74 3.6-19.3 12.4-19.3 7.2 0 8.3 5.2 8.4 6.42.1 1.2-.2 2.46-.2 2.46s-1.4-1.47-4.6-1.34c-5.4.2-6 4.8-5.9 6 0 1.2.7 6.1 6.2 5.9 5.6-.2 11.6-4.7 10.6-13.8-1.1-9.2-8.3-12.1-15.1-12.1-6.7 0-16.1 5.6-19.6 18.6z"/><path fill="#ED1C24" d="M303.7 3c-.4-1.12-.84-2.12-1.32-3h-21c-.66 0-1.18.52-1.18 1.17 0 .65.52 1.18 1.17 1.18h6.48c4.18 0 7.35 2.7 9.3 9.15l31.97 93.54c1.28 2.82 2.52.64 3.08.64 1.06 0 .72.46 1.38-1.5.1-.33.78-2.9 1.92-7.22l-.16-.43L303.7 3z"/><linearGradient id="c" x1="173.83" x2="173.83" y1="95.51" gradientUnits="userSpaceOnUse"><stop offset=".15" stop-color="#58595B"/><stop offset=".43"/></linearGradient><path fill="url(#c)" d="M201.94 0H186.1c-.66 0-1.18.52-1.18 1.17 0 .65.52 1.17 1.17 1.17h1.6c1.2 0 4.2.5 4.2 2.43v72.3L168.5 4.94c.2.6-.05-.17-.04-.16 0 0-.28-.9 0-.04-.54-1.8 2.27-2.4 3.48-2.4h2.9c.64 0 1.16-.5 1.16-1.16 0-.65-.52-1.17-1.17-1.17h-29.1c-.65 0-1.18.6-1.18 1.2 0 .7.53 1.2 1.18 1.2h2.2c1.2 0 4.24.5 4.24 2.5v85.9c0 2-3.03 2.5-4.25 2.5-.65 0-1.17.5-1.17 1.2s.52 1.2 1.17 1.2h16.63c.64 0 1.17-.5 1.17-1.1s-.53-1.1-1.17-1.1h-2.6c-1.23 0-4.26-.5-4.26-2.4V21.5l24.9 74.06h14.1V4.8c0-1.92 3-2.43 4.2-2.43h1c.6 0 1.1-.53 1.1-1.17 0-.65-.5-1.17-1.2-1.17z"/><path d="M199.74 68.44c0-7.74 2.16-14.23 6.48-19.5 4.3-5.24 9.6-7.87 15.88-7.87 6.15 0 11.4 2.65 15.76 7.94 4.36 5.3 6.54 11.7 6.54 19.2 0 8.4-2.12 15.2-6.35 20.6-4.24 5.4-9.6 8.1-16.07 8.1S210.18 94.3 206 89c-4.17-5.3-6.26-12.1-6.26-20.5zm16.36-15.96v33.47c0 5.96 1.92 8.94 5.76 8.94 4.12 0 6.18-2.9 6.18-8.5v-33c0-3.8-.44-6.4-1.3-7.9s-2.47-2.3-4.76-2.3c-2.12 0-3.63.7-4.53 2.1s-1.35 3.8-1.35 7.1z"/><path d="M242.35.33h19.86v93.43h5.4v2.16h-25.2v-2.16h5.4V2.5h-5.3V.32z"/><path d="M290.33 62.68V48.75c0-1.63-.56-2.96-1.7-3.98-1.13-1.03-2.6-1.54-4.43-1.54-1.5 0-2.93.36-4.3 1.08-1.34.8-2.02 1.5-2.02 2.2 0 .6.6 1.4 1.82 2.3 2.77 1.6 4.15 3.8 4.15 6.5 0 2-.74 3.7-2.23 5.1-1.48 1.4-3.28 2.1-5.4 2.1-2.47 0-4.46-.7-5.96-2.1S268 57 268 54.6c0-3.85 1.76-7.06 5.28-9.65 3.52-2.58 7.96-3.88 13.33-3.88 5.6 0 10 1.46 13.3 4.36 3.3 2.9 4.9 6.83 4.9 11.75v32.88c0 1.5.4 2.26 1.3 2.26 1.1 0 1.7-1.85 1.7-5.56h2.2v2.14c0 2.35-.7 4.24-2.2 5.64-1.5 1.4-3.5 2.1-6.1 2.1-4.9 0-8.2-2.12-10-6.35-1.2 2.2-2.6 3.9-4.3 4.8-1.6.9-4 1.4-7.2 1.4-4.3 0-7.7-1.1-10-3.3s-3.6-5.2-3.6-9.2c0-5.7 3.9-10.1 11.6-13.1 3.6-1.6 6-2.7 7.2-3.5 1.2-.8 3-2.5 5.3-4.9zm0 21.48V66.08l-2.58 2.07c-2.48 1.84-4.1 3.44-4.9 4.8-.77 1.36-1.16 3.5-1.16 6.38v7.76c0 3.8 1.2 5.7 3.6 5.7 1.3 0 2.5-.8 3.5-2.5s1.5-3.7 1.5-6.2z"/><path fill="#58595B" d="M182.6 95.5h9.4L159.88 0h-14.15c-.65 0-1.18.52-1.18 1.17 0 .65.53 1.17 1.17 1.17h2.2c1.22 0 4.25.5 4.25 2.43v85.97c0 1.93-3.03 2.43-4.25 2.43-.65 0-1.17.53-1.17 1.17s.52 1.17 1.17 1.17h16.63c.64 0 1.17-.5 1.17-1.1s-.53-1.1-1.17-1.1h-2.6c-1.23 0-4.26-.5-4.26-2.4V21.5l24.9 74.06z"/><linearGradient id="d" x1="109.59" x2="109.59" y1="96.17" y2="43.55" gradientUnits="userSpaceOnUse"><stop offset="0" stop-color="#ED1C24"/><stop offset="1" stop-color="#B61D22"/></linearGradient><path fill="url(#d)" d="M138.57 82.37c0-.93.1-1.96.42-3.3l7.4-35h-14.9l-1.2 5.45v-.72c0-2.98-2.5-5.25-8.4-5.25-18 0-26.5 22.14-26.5 36.04 0 1.8.1 3.5.4 5-1.3.9-2.8 1.5-4.3 1.5-2.9 0-4.2-.9-4.2-3.8 0-1 .1-2 .4-3.3l7.4-35H80.6l-7 33c-.5 2.4-.82 4.7-.82 6.7 0 8.6 4.84 12.3 11.02 12.3 3.6 0 9.14-1 14.2-6.2 2.55 4.4 6.88 6.2 11.33 6.2 7.3 0 12.26-4.9 15.35-9.6.82 5.9 4.53 9.5 10.1 9.5 5.55 0 7.5-3.2 10.28-10.4-.72.3-1.34.4-2.26.4-2.9 0-4.23-1-4.23-3.8zm-14-5.25c-1.23 5.97-5.56 9.06-8.55 9.06-1.85 0-5.14-.1-5.14-8.03 0-9.68 5.66-28.22 14.4-28.22 3.3 0 4.23 2.68 4.23 3.92l-4.9 23.27z"/><linearGradient id="e" x1="87.46" x2="6.85" y1="74.44" y2="-6.17" gradientUnits="userSpaceOnUse"><stop offset="0" stop-color="#ED1C24"/><stop offset="1" stop-color="#B61D22"/></linearGradient><path fill="url(#e)" d="M66.4 29.02C59.8 49.3 52.6 71.08 52.6 71.08l-21-64.9c-1.75-4.1 6.25-3.8 8.24-3.83h8c.65 0 1.17-.53 1.17-1.18C49 .52 48.5 0 47.9 0H1.18C.5 0 0 .52 0 1.17c0 .65.52 1.18 1.17 1.18h6.48c4.18 0 7.35 2.7 9.3 9.15 0 0 30.62 90.87 31.4 92.86 1.15 2.93 2.8 3.64 4.14 3.64 1.3 0 3.1-.73 3.7-3.92l18.1-68.13c2.4-7.74 3.5-19.3 12.4-19.3 7.2 0 8.3 5.2 8.3 6.42 0 1.2-.3 2.46-.3 2.46s-1.5-1.47-4.6-1.34c-5.4.2-6 4.8-5.9 6 0 1.2.7 6.1 6.2 5.9 5.5-.2 11.6-4.7 10.5-13.8-1.1-9.2-8.3-12.1-15.1-12.1-6.7 0-16.2 5.6-19.6 18.6z"/><path fill="#ED1C24" d="M23.5 3c-.4-1.12-.83-2.1-1.32-3h-21C.5 0 0 .52 0 1.17c0 .65.52 1.18 1.17 1.18h6.48c4.18 0 7.35 2.7 9.3 9.15l31.97 93.54c1.3 2.82 2.52.64 3.1.64 1.04 0 .7.46 1.36-1.5.1-.33.78-2.9 1.92-7.22l-.15-.43L23.5 3z"/></svg>